<svg width="50" height="50" viewBox="0 0 50 50" fill="none" xmlns="http://www.w3.org/2000/svg">
<g clip-path="url(#clip0_464_14771)">
<path d="M34.3728 0C31.7072 0.184374 28.5916 1.89061 26.776 4.11248C25.1198 6.12809 23.7573 9.12182 24.2885 12.0312C27.201 12.1218 30.2104 10.3749 31.9541 8.11558C33.5853 6.01247 34.8197 3.03748 34.3728 0Z" fill="#f2f3f4"/>
<path d="M44.9071 16.7748C42.3477 13.5655 38.7509 11.703 35.354 11.703C30.8697 11.703 28.9728 13.8499 25.8572 13.8499C22.6447 13.8499 20.2041 11.7093 16.326 11.7093C12.5166 11.7093 8.46042 14.0374 5.88856 18.0186C2.27296 23.6248 2.8917 34.1654 8.75104 43.1434C10.8479 46.3559 13.6479 49.9684 17.3104 49.9997C20.5697 50.0309 21.4885 47.909 25.9041 47.8872C30.3197 47.8622 31.1572 50.0278 34.4103 49.9934C38.0759 49.9653 41.029 45.9622 43.1258 42.7497C44.629 40.4466 45.1883 39.2872 46.354 36.6872C37.8759 33.4591 36.5165 21.4029 44.9071 16.7748Z" fill="#f2f3f4"/>
</g>
<defs>
<clipPath id="clip0_464_14771">
<rect width="50" height="50" fill="white"/>
</clipPath>
</defs>
</svg>
