<?xml version="1.0" encoding="utf-8"?>
<!-- Generator: Adobe Illustrator 27.5.0, SVG Export Plug-In . SVG Version: 6.00 Build 0)  -->
<svg version="1.1" xmlns="http://www.w3.org/2000/svg" xmlns:xlink="http://www.w3.org/1999/xlink" x="0px" y="0px"
	 viewBox="0 0 600 400" style="enable-background:new 0 0 600 400;" xml:space="preserve">
<g id="background">
	<rect y="0" style="fill:#FFFFFF;" width="600" height="400"/>
</g>
<g id="objects">
	<g>
		<g>
			<path style="fill:#00D890;" d="M361.239,87.119H235.601V42.606c0-11.465-12.959-18.104-22.304-11.465L59.94,140.129
				c-3.102,2.216-4.663,5.627-4.663,9.057c0,3.411,1.561,6.841,4.663,9.047l153.357,108.979c9.346,6.648,22.304,0,22.304-11.456
				v-44.782H300l3.854-1.339v-19.27L300,189.026h-86.27v51.604L85.058,149.186L213.73,57.733v51.344h147.508
				c3.025,0,5.752-1.233,7.737-3.218c1.975-1.994,3.199-4.731,3.199-7.766C372.174,92.033,367.28,87.119,361.239,87.119z"/>
			<path style="fill:#0CBC7D;" d="M303.854,190.365v19.27L300,210.974h-64.399v44.782c0,11.456-12.959,18.104-22.304,11.456
				L59.94,158.233c-3.102-2.206-4.663-5.636-4.663-9.047h29.781L213.73,240.63v-51.604H300L303.854,190.365z"/>
		</g>
		<g>
			<path style="fill:#1443FF;" d="M540.06,241.767L386.703,132.788c-9.346-6.648-22.305,0-22.305,11.456v44.782H300v21.948h86.27
				V159.37l128.673,91.444L386.27,342.267v-51.344H238.761c-3.025,0-5.752,1.233-7.737,3.218c-1.975,1.994-3.199,4.731-3.199,7.766
				c0,6.06,4.894,10.974,10.935,10.974h125.638v44.513c0,11.465,12.959,18.104,22.305,11.465L540.06,259.871
				c3.102-2.216,4.663-5.627,4.663-9.057C544.723,247.403,543.163,243.973,540.06,241.767z"/>
			<path style="fill:#0D3AC9;" d="M544.723,250.814c0,3.43-1.561,6.841-4.663,9.057L386.703,368.859
				c-9.346,6.638-22.305,0-22.305-11.465v-44.513H238.761c-6.041,0-10.935-4.914-10.935-10.974c0-3.035,1.224-5.771,3.199-7.766
				c1.985-1.985,4.711-3.218,7.737-3.218H386.27v51.344l128.673-91.453H544.723z"/>
		</g>
	</g>
</g>
</svg>
