<?xml version="1.0" encoding="UTF-8"?>
<svg id="Layer_1" data-name="Layer 1" xmlns="http://www.w3.org/2000/svg" xmlns:xlink="http://www.w3.org/1999/xlink" viewBox="0 0 453.29949 70.97486">
  <defs>
    <style>
      .cls-1 {
        fill: url(#linear-gradient-2);
      }

      .cls-2 {
        fill: url(#linear-gradient);
      }
    </style>
    <linearGradient id="linear-gradient" x1="128.09713" y1="35.48743" x2="453.29949" y2="35.48743" gradientUnits="userSpaceOnUse">
      <stop offset="0" stop-color="#f1ba26"/>
      <stop offset="1" stop-color="#d93b18"/>
    </linearGradient>
    <linearGradient id="linear-gradient-2" x1=".25422" y1="35.48743" x2="88.98251" y2="35.48743" xlink:href="#linear-gradient"/>
  </defs>
  <path class="cls-2" d="M222.59779,54.88472c.23316,0,.43509.01611.6053.04784.16971.03198.31826.09316.44567.1833s.24121.21251.34243.3661c.10072.1541.20445.35855.31071.61336l3.31254,7.64484c.0423.09568.11683.14352.22309.14352h.19136c.10575,0,.18028-.04784.22309-.14352l3.31254-7.64484c.10626-.25481.20949-.45926.31071-.61336.10072-.15359.21503-.27596.34243-.3661s.27294-.15133.43811-.1833c.16417-.03173.36358-.04784.59724-.04784h1.70411c.55192,0,.92356.12489,1.11492.37441.19086.24952.28654.67681.28654,1.28211v9.14198c0,.23366-.12237.35049-.3661.35049h-1.62455c-.23416,0-.35049-.11683-.35049-.35049v-8.31384c0-.106-.0428-.15913-.12741-.15913h-.14352c-.10626,0-.17525.04255-.20697.12741l-3.21737,7.13521c-.12741.28679-.25733.52825-.39027.72465-.13294.19665-.27596.3583-.43006.4857s-.32934.2178-.52523.27093c-.1969.05313-.42754.07957-.69292.07957h-.76443c-.26589,0-.49653-.02644-.69292-.07957-.1969-.05313-.37164-.14352-.52574-.27093s-.29711-.28905-.43006-.4857c-.13294-.1964-.26287-.43786-.39027-.72465l-3.21686-7.13521c-.03223-.08485-.10122-.12741-.20747-.12741h-.14302c-.0851,0-.12741.05313-.12741.15913v8.31384c0,.23366-.11733.35049-.35049.35049h-1.62455c-.24424,0-.36661-.11683-.36661-.35049v-9.14198c0-.6053.09568-1.03259.28704-1.28211.19086-.24952.56753-.37441,1.13054-.37441h1.73634ZM252.3986,54.88472c.40337,0,.74328.08234,1.01924.24701s.54689.4857.81227.9636l5.27197,9.57203c.05288.10626.06597.19388.03978.26287-.02669.06924-.10323.10349-.23114.10349h-2.02237c-.18078,0-.30265-.06899-.36661-.20697l-1.13054-2.0546h-7.4857l-1.09931,2.0546c-.07403.13798-.1964.20697-.3661.20697h-2.07072c-.13798,0-.22006-.03424-.24675-.10349-.02669-.06899-.01309-.15661.03978-.26287l5.22413-9.57203c.26539-.4779.52574-.79893.78055-.9636s.55192-.24701.89184-.24701h.93968ZM249.30864,61.92451h5.47894l-2.5325-4.66667c-.0423-.07403-.10072-.11129-.17474-.11129h-.09568c-.07453,0-.13294.03726-.17525.11129l-2.50077,4.66667ZM276.74464,54.88472c1.22118,0,2.0969.27621,2.62818.82839.53077.55217.79616,1.36974.79616,2.45268v.9077c0,.91349-.18582,1.63537-.55746,2.16615-.37164.53102-.97694.87069-1.8154,1.0195l2.72336,3.3765c.05288.05313.06899.13269.04784.2387-.02165.10626-.10626.15938-.25481.15938h-2.0546c-.13798,0-.23366-.01586-.28654-.04784-.05338-.03173-.10626-.08485-.15963-.15913l-2.51639-3.3128h-5.14456v3.16928c0,.23366-.11683.35049-.34999.35049h-1.72023c-.24424,0-.36661-.11683-.36661-.35049v-10.3206c0-.31851.15963-.4779.4779-.4779h8.55279ZM270.15077,60.57063h6.10036c.54135,0,.92356-.11658,1.14665-.35024.22309-.23341.33438-.58944.33438-1.06708v-.669c0-.4779-.11129-.83342-.33438-1.06708-.22309-.23341-.6053-.35049-1.14665-.35049h-5.89288c-.13848,0-.20747.0637-.20747.19111v3.3128ZM290.94204,54.88472c.23316,0,.34999.11708.34999.35049v4.23661h2.24596c.25481,0,.46732-.00806.63703-.02392s.31877-.05036.44617-.10349.24373-.12741.34999-.22309c.10626-.09543.21755-.21755.33488-.36635l2.73947-3.66303c.05288-.07428.10575-.12741.15913-.15938.05288-.03173.15359-.04784.30265-.04784h1.97504c.13748,0,.22006.04532.24675.13546.02619.09039.01309.17273-.03978.24675l-3.08996,3.99791c-.18078.24424-.34797.45121-.50156.62091-.1541.17021-.30567.31877-.45423.44617.41445.25481.81781.63703,1.2106,1.14665l3.26521,4.14093c.0423.05338.05791.13546.04784.24701-.01108.11154-.09568.16719-.25481.16719h-2.03899c-.13798,0-.23366-.01586-.28654-.04784-.05338-.03173-.10626-.08485-.15913-.15913l-2.93083-3.79069c-.21251-.27596-.44063-.4643-.68487-.56552-.24424-.10072-.61084-.15133-1.09881-.15133h-2.42121v4.36402c0,.23366-.11683.35049-.34999.35049h-1.72023c-.24424,0-.36661-.11683-.36661-.35049v-10.44801c0-.23341.12237-.35049.36661-.35049h1.72023ZM320.10431,54.88472c.24424,0,.36661.11708.36661.35049v1.513c0,.23366-.12237.35049-.36661.35049h-6.95997c-.41394,0-.75638.0345-1.0273.10349-.27093.06924-.48847.18582-.65314.35049s-.27848.3875-.34243.66875c-.06345.2815-.09518.62922-.09518,1.04342v.15913h8.99846c.23366,0,.35049.11708.35049.35049v1.25819c0,.23366-.11683.35024-.35049.35024h-8.99846v.27093c0,.41394.03173.76192.09518,1.04316.06395.2815.17776.50433.34243.669s.38222.2815.65314.35024c.27093.06924.61336.10374,1.0273.10374h6.95997c.24424,0,.36661.11683.36661.35024v1.513c0,.23366-.12237.35049-.36661.35049h-7.00781c-.80673,0-1.4916-.07428-2.0546-.22309-.563-.14856-1.02176-.39002-1.37779-.72465-.35553-.33438-.61588-.76972-.78004-1.30603-.16517-.53606-.24726-1.18643-.24726-1.95087v-2.73947c0-.76468.08208-1.41204.24726-1.94306.16417-.53102.42452-.9636.78004-1.29823.35603-.33438.81479-.57861,1.37779-.73246s1.24787-.23114,2.0546-.23114h7.00781ZM341.36392,54.88472c.24424,0,.3661.11708.3661.35049v1.56084c0,.24449-.12187.36635-.3661.36635h-5.00104v8.52081c0,.23366-.11683.35049-.35049.35049h-1.73584c-.23366,0-.35049-.11683-.35049-.35049v-8.52081h-5.00104c-.24424,0-.36661-.12187-.36661-.36635v-1.56084c0-.23341.12237-.35049.36661-.35049h12.43891ZM361.10069,54.88472c.23316,0,.34999.11708.34999.35049v1.513c0,.23366-.11683.35049-.34999.35049h-7.97972c-.30819,0-.52574.07957-.65314.23895-.12741.15913-.19086.37693-.19086.65289v.5416c0,.59473.27596.89184.82839.89184h5.97245c.92356,0,1.61901.23643,2.08633.70879.46732.47261.70098,1.14942.70098,2.03068v1.27406c0,.77526-.22862,1.40171-.68487,1.87961-.45675.47764-1.1683.71659-2.13417.71659h-8.82371c-.24424,0-.3661-.11683-.3661-.35049v-1.513c0-.23341.12187-.35024.3661-.35024h8.36143c.30819,0,.52574-.07982.65314-.23895.12741-.15938.19136-.37693.19136-.65314v-.65289c0-.59448-.27646-.89209-.82839-.89209h-5.97245c-.92407,0-1.61951-.23593-2.08633-.70854-.46783-.47236-.70098-1.14942-.70098-2.03068v-1.16276c0-.77501.22812-1.40171.68487-1.87936.45624-.4779,1.1678-.71684,2.13417-.71684h8.4415ZM136.67107,4.94115c.77048,0,1.41254.03223,1.92669.09618.51315.06446.96335.20093,1.34859.40941.38524.20899.75386.49804,1.10787.86716.35301.36912.75386.85911,1.20406,1.46894l17.91835,23.50556c.12791.2251.33689.3374.62595.3374h.43358c.25683,0,.38524-.16064.38524-.48193V6.00068c0-.70602.35301-1.05953,1.06003-1.05953h5.05745c.70602,0,1.05953.35351,1.05953,1.05953v27.64801c0,1.95892-.35351,3.28384-1.05953,3.97374-.70652.69091-1.79878,1.03586-3.27528,1.03586h-4.14244c-.73925,0-1.35715-.03173-1.85468-.09669-.49804-.06395-.93918-.19237-1.32441-.38524-.38524-.19237-.76292-.47336-1.13205-.84299-.36963-.36862-.79465-.87421-1.27657-1.51728l-17.96619-23.50556c-.19287-.22409-.40186-.33689-.62645-.33689h-.43308c-.25733,0-.38574.16064-.38574.48142v25.1432c0,.70703-.35351,1.06003-1.05953,1.06003h-5.05745c-.73925,0-1.10787-.35301-1.10787-1.06003V9.95025c0-1.95842.35301-3.28283,1.05953-3.97374.70602-.6899,1.79828-1.03536,3.27528-1.03536h4.23913ZM208.5852,4.94115c.73825,0,1.10787.35351,1.10787,1.05953v4.57602c0,.70652-.36963,1.05953-1.10787,1.05953h-21.04911c-1.2524,0-2.28826.10474-3.10708.31323-.81882.20899-1.477.56199-1.97453,1.05953-.49854.49804-.84299,1.17284-1.03586,2.02288-.19237.85155-.28905,1.90303-.28905,3.15492v.48193h27.21493c.70551,0,1.05953.35351,1.05953,1.05953v3.80555c0,.70652-.35402,1.05953-1.05953,1.05953h-27.21493v.81882c0,1.2524.09669,2.30438.28905,3.15492.19287.85105.53732,1.52534,1.03586,2.02288.49754.49854,1.15571.85155,1.97453,1.06003.81882.20899,1.85468.31272,3.10708.31272h21.04911c.73825,0,1.10787.35402,1.10787,1.06003v4.57552c0,.70703-.36963,1.06003-1.10787,1.06003h-21.19363c-2.44085,0-4.51207-.2246-6.21366-.67429-1.7026-.4497-3.09097-1.18039-4.16661-2.19158-1.07615-1.01169-1.86274-2.32805-2.36028-3.95007-.49804-1.62102-.7463-3.58851-.7463-5.90044v-8.28488c0-2.31193.24826-4.27035.7463-5.87627.49754-1.60541,1.28413-2.91421,2.36028-3.9259,1.07565-1.01119,2.46401-1.74943,4.16661-2.21524,1.70159-.46531,3.77282-.69846,6.21366-.69846h21.19363ZM253.04822,4.94115c.4497,0,.69846.15258.74681.45725.04834.30567-.04079.57056-.26488.79515l-14.7876,14.97997,15.46189,16.23237c.22409.2251.31323.48998.26488.79465-.04834.30567-.29711.45775-.7463.45775h-6.5994c-.38524,0-.69091-.04834-.915-.14453-.2251-.09669-.43358-.27244-.62595-.52977l-11.89756-12.47567-11.9454,12.47567c-.2251.25733-.44214.43308-.65012.52977-.20949.09618-.52272.14453-.93968.14453h-6.2615c-.41797,0-.65012-.15208-.69846-.45775-.04834-.30467.03978-.56955.26488-.79465l15.84713-16.47359-14.30568-14.73876c-.19287-.2246-.27344-.48948-.24071-.79515.03122-.30467.27244-.45725.72213-.45725h6.5989c.38574,0,.69041.0564.91551.1682.22409.11331.43358.2815.62595.5061l10.50063,11.17493,11.12658-11.17493c.19287-.2246.40135-.39279.62645-.5061.22409-.11179.52977-.1682.915-.1682h6.2615ZM295.71044,4.94115c.73825,0,1.10787.35351,1.10787,1.05953v4.72055c0,.73875-.36963,1.10787-1.10787,1.10787h-15.1245v25.76915c0,.70703-.35402,1.06003-1.06003,1.06003h-5.25032c-.70652,0-1.05953-.35301-1.05953-1.06003V11.82911h-15.1245c-.73925,0-1.10787-.36912-1.10787-1.10787v-4.72055c0-.70602.36862-1.05953,1.10787-1.05953h37.61887ZM306.72623,4.94115c.32028,0,.54538.20899.67429.62595l7.80296,25.91418c.03173.2251.16014.33689.38524.33689h.24121c.19237,0,.32028-.11179.38524-.33689l7.80296-23.74678c.35301-1.09126.81882-1.83001,1.39693-2.21575.57811-.38524,1.30024-.57761,2.1674-.57761h4.76889c1.05953,0,1.86979.20899,2.43229.62595.56149.41797,1.01874,1.1401,1.37276,2.1674l7.99583,23.74678c.06395.2251.19237.33689.38524.33689h.28905c.19287,0,.32078-.11179.38524-.33689l7.61059-25.91418c.06395-.25683.1687-.42502.31323-.50559.14453-.08007.2961-.12036.45725-.12036h6.50272c.25683,0,.40941.1128.45775.33689.04784.2251.02417.48193-.07252.77098l-9.24823,28.94825c-.4497,1.44527-.94723,2.41668-1.49311,2.91421-.54638.49854-1.28463.74681-2.21575.74681h-5.63555c-.93162,0-1.66181-.25683-2.19158-.77098-.52977-.51315-1.03536-1.47649-1.51728-2.89004l-7.56225-22.87962c-.03223-.22409-.16115-.33689-.38524-.33689h-.19287c-.2251,0-.35351.1128-.38524.33689l-7.65843,22.87962c-.48193,1.41355-.98752,2.37689-1.51728,2.89004-.52977.51415-1.26096.77098-2.19158.77098h-5.49103c-.54638,0-1.02025-.04834-1.4211-.14453-.40186-.09669-.76343-.281-1.0837-.55394-.32128-.27244-.60228-.65012-.84299-1.13205-.24071-.48142-.47437-1.09126-.69846-1.83051l-8.86299-28.94825c-.09618-.32078-.12036-.58566-.07201-.79515.04784-.20848.19992-.31272.45775-.31272h6.45437ZM370.81272,4.94115c.70602,0,1.05953.35351,1.05953,1.05953v31.59758c0,.70703-.35351,1.06003-1.05953,1.06003h-5.20197c-.73925,0-1.10787-.35301-1.10787-1.06003V6.00068c0-.70602.36862-1.05953,1.10787-1.05953h5.20197ZM410.88806,4.94115c.70602,0,1.05953.35351,1.05953,1.05953v4.57602c0,.70652-.35351,1.05953-1.05953,1.05953h-24.13202c-.93162,0-1.5893.24071-1.97504.72264-.38524.48142-.57761,1.1401-.57761,1.97453v1.63814c0,1.79828.83443,2.69717,2.5043,2.69717h18.06288c2.79386,0,4.8968.71508,6.30985,2.14323,1.41304,1.42916,2.11956,3.47671,2.11956,6.14165v3.85339c0,2.34416-.69091,4.23863-2.07122,5.68339-1.38081,1.44527-3.53261,2.16791-6.45437,2.16791h-26.68466c-.73925,0-1.10787-.35301-1.10787-1.06003v-4.57552c0-.70602.36862-1.06003,1.10787-1.06003h25.28773c.93112,0,1.5898-.24071,1.97504-.72213.38524-.48193.57811-1.1396.57811-1.97504v-1.97504c0-1.79778-.83544-2.69717-2.5048-2.69717h-18.06288c-2.79386,0-4.89731-.71408-6.30985-2.14374-1.41355-1.42815-2.11956-3.4752-2.11956-6.14115v-3.51599c0-2.34366.69041-4.23913,2.07122-5.6839,1.38031-1.44527,3.5321-2.1674,6.45437-2.1674h25.52895ZM452.19162,4.94115c.73825,0,1.10787.35351,1.10787,1.05953v4.57602c0,.70652-.36963,1.05953-1.10787,1.05953h-21.04911c-1.2524,0-2.28826.10474-3.10708.31323-.81882.20899-1.477.56199-1.97453,1.05953-.49854.49804-.84299,1.17284-1.03586,2.02288-.19237.85155-.28905,1.90303-.28905,3.15492v.48193h27.21493c.70551,0,1.05953.35351,1.05953,1.05953v3.80555c0,.70652-.35402,1.05953-1.05953,1.05953h-27.21493v.81882c0,1.2524.09669,2.30438.28905,3.15492.19287.85105.53732,1.52534,1.03586,2.02288.49754.49854,1.15571.85155,1.97453,1.06003.81882.20899,1.85468.31272,3.10708.31272h21.04911c.73825,0,1.10787.35402,1.10787,1.06003v4.57552c0,.70703-.36963,1.06003-1.10787,1.06003h-21.19363c-2.44085,0-4.51207-.2246-6.21366-.67429-1.7026-.4497-3.09097-1.18039-4.16661-2.19158-1.07615-1.01169-1.86274-2.32805-2.36028-3.95007-.49804-1.62102-.7463-3.58851-.7463-5.90044v-8.28488c0-2.31193.24826-4.27035.7463-5.87627.49754-1.60541,1.28413-2.91421,2.36028-3.9259,1.07565-1.01119,2.46401-1.74943,4.16661-2.21524,1.70159-.46531,3.77282-.69846,6.21366-.69846h21.19363Z"/>
  <path class="cls-1" d="M89.30663,14.88455v46.3882l-16.80221,9.70212-18.5695-10.71453-18.56506,10.71453-16.80218-9.70212V22.442l15.05271,8.69421v23.45826l20.31452-11.72693,20.31897,11.72693V14.8801c.01778.00889.04.01333.05773.01778,1.89603,1.69624,4.54251,2.74415,7.46862,2.74415s5.56819-1.04791,7.46867-2.7397c.01778-.00444.04-.00889.05773-.01778ZM70.74965,31.13659L16.80581,0,0,9.70347v60.26088l15.05301-8.69383V16.37113l55.69664,32.15312v-17.38765ZM73.18381,10.1023c-.21757-.79034-.33302-1.61623-.33302-2.45546,0-2.34451.87918-4.57351,2.42885-6.16763-1.75391.25757-2.904,2.05143-4.01852,3.78762-.54615.84806-1.11008,1.73169-1.73613,2.37112.55949.54621,1.07008,1.35871,1.61179,2.21572.87029,1.37205,1.85164,2.93061,3.1704,3.62333.32419.16873.64388.27974.97246.32858-.40853-.42181-.78595-.91029-1.11897-1.45644-.4307-.70155-.75483-1.45644-.97685-2.24683ZM74.62692,5.22682c-.47515,1.36321-.52398,2.90844-.13323,4.37377.4707,1.73169,1.50523,3.21924,2.91288,4.1872.91024.65272,1.96704,1.09675,3.06823,1.29215l-5.84788-9.85313ZM75.7769,4.39654l6.00778,10.12393,6.00334-10.12393h-12.01112ZM87.11752,2.30955c-1.07453-1.07902-2.52208-1.82053-4.07175-2.08254-.42625-.07545-.87029-.11545-1.32766-.11545-1.58523,0-3.11712.49292-4.3071,1.38544-.5906.42625-1.11453.92801-1.55856,1.49195h11.869c-.17323-.22646-.37303-.45292-.60393-.67938ZM92.29941,5.26682l-.00889-.01333c-.88807-1.38094-1.80719-2.81077-3.03717-3.45015-.23091-.1199-.46181-.20868-.70161-.26641-.09323-.02217-.18646-.04439-.27969-.05773.01778.02222.03995.04445.05767.06662.40414.41742.76378.88362,1.07019,1.38983.85695,1.39422,1.30988,3.02834,1.30988,4.71563s-.45292,3.31692-1.30988,4.71119c-.32863.54171-.70161,1.02574-1.10569,1.44311.32419-.05328.63944-.15985.95913-.32858,1.32321-.69716,2.30451-2.25128,3.1704-3.62333l.01772-.03106c.50626-.80373,1.03019-1.63846,1.59856-2.18466-.63055-.64388-1.19448-1.52306-1.74063-2.37112ZM89.30663,6.22145c-.07995-.42625-.1954-.84362-.35075-1.24771l-6.08329,10.25271c1.20331-.17313,2.35779-.63494,3.34797-1.34099,1.66068-1.15442,2.73531-2.96167,3.08606-4.89765.16873-.91029.17318-1.85164,0-2.76637Z"/>
</svg>