<?xml version="1.0" encoding="UTF-8"?>
<svg id="Layer_1" data-name="Layer 1" xmlns="http://www.w3.org/2000/svg" xmlns:xlink="http://www.w3.org/1999/xlink" viewBox="0 0 109.71544 109.71544">
  <defs>
    <style>
      .cls-1 {
        fill: url(#linear-gradient);
      }
    </style>
    <linearGradient id="linear-gradient" x1="16.10107" y1="54.85772" x2="93.42826" y2="54.85772" gradientUnits="userSpaceOnUse">
      <stop offset="0" stop-color="#f1ba26"/>
      <stop offset="1" stop-color="#d93b18"/>
    </linearGradient>
  </defs>
  <rect width="109.71544" height="109.71544" rx="13.76132" ry="13.76132"/>
  <path class="cls-1" d="M93.71073,36.90219v40.42757l-14.64321,8.45545-16.18342-9.33777-16.17955,9.33777-14.64319-8.45545v-33.84121l13.11852,7.57705v20.444l17.70422-10.22009,17.70809,10.22009v-34.61129c.01549.00775.03486.01162.05031.01549,1.6524,1.47828,3.95882,2.39154,6.50894,2.39154s4.85271-.91326,6.50899-2.38767c.01549-.00387.03486-.00775.05031-.01549ZM77.53822,51.06593L30.52587,23.93023l-14.64636,8.45663v52.51769l13.11878-7.57672v-39.13007l48.53993,28.02162v-15.15344ZM79.65961,32.73444c-.18962-.68878-.29023-1.40856-.29023-2.13995,0-2.04325.76621-3.98584,2.11676-5.37512-1.52854.22448-2.53085,1.78783-3.50216,3.30093-.47597.73909-.96744,1.50917-1.51305,2.06645.4876.47602.93258,1.18413,1.40468,1.93101.75846,1.19575,1.61371,2.55404,2.76302,3.15775.28253.14705.56115.2438.84751.28636-.35604-.36761-.68496-.79332-.97519-1.2693-.37536-.61141-.65784-1.2693-.85133-1.95813ZM80.91728,28.48543c-.41409,1.18805-.45665,2.53472-.11611,3.81177.41022,1.50917,1.31181,2.80559,2.53859,3.64917.79328.56885,1.71428.95582,2.67398,1.12612l-5.09646-8.58705ZM81.91949,27.76183l5.23582,8.82306,5.23194-8.82306h-10.46776ZM91.80291,25.94301c-.93646-.94038-2.19801-1.5866-3.54855-1.81495-.37148-.06576-.75846-.10062-1.15706-.10062-1.38154,0-2.71659.42959-3.75366,1.20742-.51471.37148-.97132.80877-1.35829,1.30024h10.3439c-.15097-.19736-.3251-.39472-.52633-.59209ZM96.31896,28.52029l-.00775-.01162c-.77395-1.20349-1.57498-2.4496-2.64691-3.00682-.20124-.10449-.40247-.18187-.61145-.23218-.08125-.01932-.1625-.03869-.24375-.05031.01549.01937.03481.03874.05026.05806.35221.36378.66564.77008.93268,1.21124.74684,1.21507,1.14156,2.63921,1.14156,4.1097s-.39472,2.89071-1.14156,4.10583c-.28641.4721-.61145.89394-.96362,1.25768.28253-.04644.55727-.13931.83588-.28636,1.15319-.60758,2.00839-1.962,2.76302-3.15775l.01545-.02707c.44121-.70045.89781-1.42792,1.39316-1.90395-.54953-.56115-1.04099-1.32735-1.51697-2.06645ZM93.71073,29.35226c-.06968-.37148-.17029-.73522-.30568-1.08738l-5.30162,8.9353c1.04869-.15088,2.05483-.55335,2.91778-1.16868,1.44729-1.00608,2.38384-2.58111,2.68952-4.26833.14705-.79332.15093-1.61371,0-2.41091Z"/>
</svg>